<svg xmlns:xlink="http://www.w3.org/1999/xlink" width="75ex" height="35.843ex" style="font-size: 15px; vertical-align: -17.838ex; max-width: 450;" viewBox="0 -7752 32291.5 15432.2" role="img" focusable="false" xmlns="http://www.w3.org/2000/svg">
<defs>
<path stroke-width="1" id="E1-MJMATHI-70" d="M23 287Q24 290 25 295T30 317T40 348T55 381T75 411T101 433T134 442Q209 442 230 378L240 387Q302 442 358 442Q423 442 460 395T497 281Q497 173 421 82T249 -10Q227 -10 210 -4Q199 1 187 11T168 28L161 36Q160 35 139 -51T118 -138Q118 -144 126 -145T163 -148H188Q194 -155 194 -157T191 -175Q188 -187 185 -190T172 -194Q170 -194 161 -194T127 -193T65 -192Q-5 -192 -24 -194H-32Q-39 -187 -39 -183Q-37 -156 -26 -148H-6Q28 -147 33 -136Q36 -130 94 103T155 350Q156 355 156 364Q156 405 131 405Q109 405 94 377T71 316T59 280Q57 278 43 278H29Q23 284 23 287ZM178 102Q200 26 252 26Q282 26 310 49T356 107Q374 141 392 215T411 325V331Q411 405 350 405Q339 405 328 402T306 393T286 380T269 365T254 350T243 336T235 326L232 322Q232 321 229 308T218 264T204 212Q178 106 178 102Z"></path>
<path stroke-width="1" id="E1-MJMATHI-78" d="M52 289Q59 331 106 386T222 442Q257 442 286 424T329 379Q371 442 430 442Q467 442 494 420T522 361Q522 332 508 314T481 292T458 288Q439 288 427 299T415 328Q415 374 465 391Q454 404 425 404Q412 404 406 402Q368 386 350 336Q290 115 290 78Q290 50 306 38T341 26Q378 26 414 59T463 140Q466 150 469 151T485 153H489Q504 153 504 145Q504 144 502 134Q486 77 440 33T333 -11Q263 -11 227 52Q186 -10 133 -10H127Q78 -10 57 16T35 71Q35 103 54 123T99 143Q142 143 142 101Q142 81 130 66T107 46T94 41L91 40Q91 39 97 36T113 29T132 26Q168 26 194 71Q203 87 217 139T245 247T261 313Q266 340 266 352Q266 380 251 392T217 404Q177 404 142 372T93 290Q91 281 88 280T72 278H58Q52 284 52 289Z"></path>
<path stroke-width="1" id="E1-MJMAIN-28" d="M94 250Q94 319 104 381T127 488T164 576T202 643T244 695T277 729T302 750H315H319Q333 750 333 741Q333 738 316 720T275 667T226 581T184 443T167 250T184 58T225 -81T274 -167T316 -220T333 -241Q333 -250 318 -250H315H302L274 -226Q180 -141 137 -14T94 250Z"></path>
<path stroke-width="1" id="E1-MJMATHI-7A" d="M347 338Q337 338 294 349T231 360Q211 360 197 356T174 346T162 335T155 324L153 320Q150 317 138 317Q117 317 117 325Q117 330 120 339Q133 378 163 406T229 440Q241 442 246 442Q271 442 291 425T329 392T367 375Q389 375 411 408T434 441Q435 442 449 442H462Q468 436 468 434Q468 430 463 420T449 399T432 377T418 358L411 349Q368 298 275 214T160 106L148 94L163 93Q185 93 227 82T290 71Q328 71 360 90T402 140Q406 149 409 151T424 153Q443 153 443 143Q443 138 442 134Q425 72 376 31T278 -11Q252 -11 232 6T193 40T155 57Q111 57 76 -3Q70 -11 59 -11H54H41Q35 -5 35 -2Q35 13 93 84Q132 129 225 214T340 322Q352 338 347 338Z"></path>
<path stroke-width="1" id="E1-MJMAIN-29" d="M60 749L64 750Q69 750 74 750H86L114 726Q208 641 251 514T294 250Q294 182 284 119T261 12T224 -76T186 -143T145 -194T113 -227T90 -246Q87 -249 86 -250H74Q66 -250 63 -250T58 -247T55 -238Q56 -237 66 -225Q221 -64 221 250T66 725Q56 737 55 738Q55 746 60 749Z"></path>
<path stroke-width="1" id="E1-MJMATHI-79" d="M21 287Q21 301 36 335T84 406T158 442Q199 442 224 419T250 355Q248 336 247 334Q247 331 231 288T198 191T182 105Q182 62 196 45T238 27Q261 27 281 38T312 61T339 94Q339 95 344 114T358 173T377 247Q415 397 419 404Q432 431 462 431Q475 431 483 424T494 412T496 403Q496 390 447 193T391 -23Q363 -106 294 -155T156 -205Q111 -205 77 -183T43 -117Q43 -95 50 -80T69 -58T89 -48T106 -45Q150 -45 150 -87Q150 -107 138 -122T115 -142T102 -147L99 -148Q101 -153 118 -160T152 -167H160Q177 -167 186 -165Q219 -156 247 -127T290 -65T313 -9T321 21L315 17Q309 13 296 6T270 -6Q250 -11 231 -11Q185 -11 150 11T104 82Q103 89 103 113Q103 170 138 262T173 379Q173 380 173 381Q173 390 173 393T169 400T158 404H154Q131 404 112 385T82 344T65 302T57 280Q55 278 41 278H27Q21 284 21 287Z"></path>
<path stroke-width="1" id="E1-MJMAIN-3D" d="M56 347Q56 360 70 367H707Q722 359 722 347Q722 336 708 328L390 327H72Q56 332 56 347ZM56 153Q56 168 72 173H708Q722 163 722 153Q722 140 707 133H70Q56 140 56 153Z"></path>
<path stroke-width="1" id="E1-MJSZ2-220F" d="M220 812Q220 813 218 819T214 829T208 840T199 853T185 866T166 878T140 887T107 893T66 896H56V950H1221V896H1211Q1080 896 1058 812V-311Q1076 -396 1211 -396H1221V-450H725V-396H735Q864 -396 888 -314Q889 -312 889 -311V896H388V292L389 -311Q405 -396 542 -396H552V-450H56V-396H66Q195 -396 219 -314Q220 -312 220 -311V812Z"></path>
<path stroke-width="1" id="E1-MJMATHI-69" d="M184 600Q184 624 203 642T247 661Q265 661 277 649T290 619Q290 596 270 577T226 557Q211 557 198 567T184 600ZM21 287Q21 295 30 318T54 369T98 420T158 442Q197 442 223 419T250 357Q250 340 236 301T196 196T154 83Q149 61 149 51Q149 26 166 26Q175 26 185 29T208 43T235 78T260 137Q263 149 265 151T282 153Q302 153 302 143Q302 135 293 112T268 61T223 11T161 -11Q129 -11 102 10T74 74Q74 91 79 106T122 220Q160 321 166 341T173 380Q173 404 156 404H154Q124 404 99 371T61 287Q60 286 59 284T58 281T56 279T53 278T49 278T41 278H27Q21 284 21 287Z"></path>
<path stroke-width="1" id="E1-MJMAIN-31" d="M213 578L200 573Q186 568 160 563T102 556H83V602H102Q149 604 189 617T245 641T273 663Q275 666 285 666Q294 666 302 660V361L303 61Q310 54 315 52T339 48T401 46H427V0H416Q395 3 257 3Q121 3 100 0H88V46H114Q136 46 152 46T177 47T193 50T201 52T207 57T213 61V578Z"></path>
<path stroke-width="1" id="E1-MJMATHI-6B" d="M121 647Q121 657 125 670T137 683Q138 683 209 688T282 694Q294 694 294 686Q294 679 244 477Q194 279 194 272Q213 282 223 291Q247 309 292 354T362 415Q402 442 438 442Q468 442 485 423T503 369Q503 344 496 327T477 302T456 291T438 288Q418 288 406 299T394 328Q394 353 410 369T442 390L458 393Q446 405 434 405H430Q398 402 367 380T294 316T228 255Q230 254 243 252T267 246T293 238T320 224T342 206T359 180T365 147Q365 130 360 106T354 66Q354 26 381 26Q429 26 459 145Q461 153 479 153H483Q499 153 499 144Q499 139 496 130Q455 -11 378 -11Q333 -11 305 15T277 90Q277 108 280 121T283 145Q283 167 269 183T234 206T200 217T182 220H180Q168 178 159 139T145 81T136 44T129 20T122 7T111 -2Q98 -11 83 -11Q66 -11 57 -1T48 16Q48 26 85 176T158 471L195 616Q196 629 188 632T149 637H144Q134 637 131 637T124 640T121 647Z"></path>
<path stroke-width="1" id="E1-MJMAIN-65" d="M28 218Q28 273 48 318T98 391T163 433T229 448Q282 448 320 430T378 380T406 316T415 245Q415 238 408 231H126V216Q126 68 226 36Q246 30 270 30Q312 30 342 62Q359 79 369 104L379 128Q382 131 395 131H398Q415 131 415 121Q415 117 412 108Q393 53 349 21T250 -11Q155 -11 92 58T28 218ZM333 275Q322 403 238 411H236Q228 411 220 410T195 402T166 381T143 340T127 274V267H333V275Z"></path>
<path stroke-width="1" id="E1-MJMAIN-78" d="M201 0Q189 3 102 3Q26 3 17 0H11V46H25Q48 47 67 52T96 61T121 78T139 96T160 122T180 150L226 210L168 288Q159 301 149 315T133 336T122 351T113 363T107 370T100 376T94 379T88 381T80 383Q74 383 44 385H16V431H23Q59 429 126 429Q219 429 229 431H237V385Q201 381 201 369Q201 367 211 353T239 315T268 274L272 270L297 304Q329 345 329 358Q329 364 327 369T322 376T317 380T310 384L307 385H302V431H309Q324 428 408 428Q487 428 493 431H499V385H492Q443 385 411 368Q394 360 377 341T312 257L296 236L358 151Q424 61 429 57T446 50Q464 46 499 46H516V0H510H502Q494 1 482 1T457 2T432 2T414 3Q403 3 377 3T327 1L304 0H295V46H298Q309 46 320 51T331 63Q331 65 291 120L250 175Q249 174 219 133T185 88Q181 83 181 74Q181 63 188 55T206 46Q208 46 208 23V0H201Z"></path>
<path stroke-width="1" id="E1-MJMAIN-70" d="M36 -148H50Q89 -148 97 -134V-126Q97 -119 97 -107T97 -77T98 -38T98 6T98 55T98 106Q98 140 98 177T98 243T98 296T97 335T97 351Q94 370 83 376T38 385H20V408Q20 431 22 431L32 432Q42 433 61 434T98 436Q115 437 135 438T165 441T176 442H179V416L180 390L188 397Q247 441 326 441Q407 441 464 377T522 216Q522 115 457 52T310 -11Q242 -11 190 33L182 40V-45V-101Q182 -128 184 -134T195 -145Q216 -148 244 -148H260V-194H252L228 -193Q205 -192 178 -192T140 -191Q37 -191 28 -194H20V-148H36ZM424 218Q424 292 390 347T305 402Q234 402 182 337V98Q222 26 294 26Q345 26 384 80T424 218Z"></path>
<path stroke-width="1" id="E1-MJMAIN-2212" d="M84 237T84 250T98 270H679Q694 262 694 250T679 230H98Q84 237 84 250Z"></path>
<path stroke-width="1" id="E1-MJMATHI-3F5" d="M227 -11Q149 -11 95 41T40 174Q40 262 87 322Q121 367 173 396T287 430Q289 431 329 431H367Q382 426 382 411Q382 385 341 385H325H312Q191 385 154 277L150 265H327Q340 256 340 246Q340 228 320 219H138V217Q128 187 128 143Q128 77 160 52T231 26Q258 26 284 36T326 57T343 68Q350 68 354 58T358 39Q358 36 357 35Q354 31 337 21T289 0T227 -11Z"></path>
<path stroke-width="1" id="E1-MJMAIN-7C" d="M139 -249H137Q125 -249 119 -235V251L120 737Q130 750 139 750Q152 750 159 735V-235Q151 -249 141 -249H139Z"></path>
<path stroke-width="1" id="E1-MJMATHI-66" d="M118 -162Q120 -162 124 -164T135 -167T147 -168Q160 -168 171 -155T187 -126Q197 -99 221 27T267 267T289 382V385H242Q195 385 192 387Q188 390 188 397L195 425Q197 430 203 430T250 431Q298 431 298 432Q298 434 307 482T319 540Q356 705 465 705Q502 703 526 683T550 630Q550 594 529 578T487 561Q443 561 443 603Q443 622 454 636T478 657L487 662Q471 668 457 668Q445 668 434 658T419 630Q412 601 403 552T387 469T380 433Q380 431 435 431Q480 431 487 430T498 424Q499 420 496 407T491 391Q489 386 482 386T428 385H372L349 263Q301 15 282 -47Q255 -132 212 -173Q175 -205 139 -205Q107 -205 81 -186T55 -132Q55 -95 76 -78T118 -61Q162 -61 162 -103Q162 -122 151 -136T127 -157L118 -162Z"></path>
<path stroke-width="1" id="E1-MJMAIN-25B3" d="M75 0L72 2Q69 3 67 5T62 11T59 20Q59 24 62 30Q65 37 245 370T428 707Q428 708 430 710T436 714T444 716Q451 716 455 712Q459 710 644 368L828 27V20Q828 7 814 0H75ZM610 347L444 653Q443 653 278 347T113 40H775Q775 42 610 347Z"></path>
<path stroke-width="1" id="E1-MJMAIN-2264" d="M674 636Q682 636 688 630T694 615T687 601Q686 600 417 472L151 346L399 228Q687 92 691 87Q694 81 694 76Q694 58 676 56H670L382 192Q92 329 90 331Q83 336 83 348Q84 359 96 365Q104 369 382 500T665 634Q669 636 674 636ZM84 -118Q84 -108 99 -98H678Q694 -104 694 -118Q694 -130 679 -138H98Q84 -131 84 -118Z"></path>
<path stroke-width="1" id="E1-MJMAIN-22C5" d="M78 250Q78 274 95 292T138 310Q162 310 180 294T199 251Q199 226 182 208T139 190T96 207T78 250Z"></path>
</defs>
<g stroke="currentColor" fill="currentColor" stroke-width="0" transform="matrix(1 0 0 -1 0 0)">
<g transform="translate(6255,0)">
<g transform="translate(167,0)">
<g transform="translate(-11,0)">
<g transform="translate(0,5315)">
<g transform="translate(120,0)">
<rect stroke="none" width="2375" height="60" x="0" y="220"></rect>
<g transform="translate(60,770)">
 <use xlink:href="#E1-MJMATHI-70" x="0" y="0"></use>
 <use transform="scale(0.707)" xlink:href="#E1-MJMATHI-78" x="712" y="-213"></use>
 <use xlink:href="#E1-MJMAIN-28" x="1008" y="0"></use>
 <use xlink:href="#E1-MJMATHI-7A" x="1397" y="0"></use>
 <use xlink:href="#E1-MJMAIN-29" x="1866" y="0"></use>
</g>
<g transform="translate(86,-771)">
 <use xlink:href="#E1-MJMATHI-70" x="0" y="0"></use>
 <use transform="scale(0.707)" xlink:href="#E1-MJMATHI-79" x="712" y="-213"></use>
 <use xlink:href="#E1-MJMAIN-28" x="955" y="0"></use>
 <use xlink:href="#E1-MJMATHI-7A" x="1344" y="0"></use>
 <use xlink:href="#E1-MJMAIN-29" x="1813" y="0"></use>
</g>
</g>
</g>
</g>
<g transform="translate(2605,0)">
<g transform="translate(0,5315)">
 <use xlink:href="#E1-MJMAIN-3D" x="277" y="0"></use>
<g transform="translate(1334,0)">
 <use xlink:href="#E1-MJSZ2-220F" x="0" y="0"></use>
<g transform="translate(64,-1090)">
 <use transform="scale(0.707)" xlink:href="#E1-MJMATHI-69" x="0" y="0"></use>
 <use transform="scale(0.707)" xlink:href="#E1-MJMAIN-3D" x="345" y="0"></use>
 <use transform="scale(0.707)" xlink:href="#E1-MJMAIN-31" x="1124" y="0"></use>
</g>
 <use transform="scale(0.707)" xlink:href="#E1-MJMATHI-6B" x="643" y="1627"></use>
</g>
<g transform="translate(2612,0)">
<g transform="translate(286,0)">
<rect stroke="none" width="7010" height="60" x="0" y="220"></rect>
<g transform="translate(60,1116)">
 <use xlink:href="#E1-MJMAIN-65"></use>
 <use xlink:href="#E1-MJMAIN-78" x="444" y="0"></use>
 <use xlink:href="#E1-MJMAIN-70" x="973" y="0"></use>
 <use xlink:href="#E1-MJMAIN-28" x="1529" y="0"></use>
 <use xlink:href="#E1-MJMAIN-2212" x="1919" y="0"></use>
<g transform="translate(2697,0)">
<g transform="translate(120,0)">
<rect stroke="none" width="3563" height="60" x="0" y="220"></rect>
<g transform="translate(60,657)">
 <use transform="scale(0.707)" xlink:href="#E1-MJMATHI-3F5" x="0" y="0"></use>
 <use transform="scale(0.707)" xlink:href="#E1-MJMAIN-7C" x="406" y="0"></use>
 <use transform="scale(0.707)" xlink:href="#E1-MJMATHI-66" x="685" y="0"></use>
 <use transform="scale(0.707)" xlink:href="#E1-MJMAIN-28" x="1235" y="0"></use>
 <use transform="scale(0.707)" xlink:href="#E1-MJMATHI-78" x="1625" y="0"></use>
<g transform="translate(1553,0)">
 <use transform="scale(0.707)" xlink:href="#E1-MJMAIN-29" x="0" y="0"></use>
 <use transform="scale(0.574)" xlink:href="#E1-MJMATHI-69" x="479" y="-360"></use>
</g>
 <use transform="scale(0.707)" xlink:href="#E1-MJMAIN-2212" x="2967" y="0"></use>
<g transform="translate(2648,0)">
 <use transform="scale(0.707)" xlink:href="#E1-MJMATHI-7A" x="0" y="0"></use>
 <use transform="scale(0.574)" xlink:href="#E1-MJMATHI-69" x="573" y="-238"></use>
</g>
 <use transform="scale(0.707)" xlink:href="#E1-MJMAIN-7C" x="4591" y="0"></use>
</g>
<g transform="translate(1272,-452)">
 <use transform="scale(0.707)" xlink:href="#E1-MJMAIN-25B3" x="0" y="0"></use>
 <use transform="scale(0.707)" xlink:href="#E1-MJMATHI-66" x="889" y="0"></use>
</g>
</g>
</g>
 <use xlink:href="#E1-MJMAIN-29" x="6501" y="0"></use>
</g>
<g transform="translate(86,-1209)">
 <use xlink:href="#E1-MJMAIN-65"></use>
 <use xlink:href="#E1-MJMAIN-78" x="444" y="0"></use>
 <use xlink:href="#E1-MJMAIN-70" x="973" y="0"></use>
 <use xlink:href="#E1-MJMAIN-28" x="1529" y="0"></use>
 <use xlink:href="#E1-MJMAIN-2212" x="1919" y="0"></use>
<g transform="translate(2697,0)">
<g transform="translate(120,0)">
<rect stroke="none" width="3510" height="60" x="0" y="220"></rect>
<g transform="translate(60,657)">
 <use transform="scale(0.707)" xlink:href="#E1-MJMATHI-3F5" x="0" y="0"></use>
 <use transform="scale(0.707)" xlink:href="#E1-MJMAIN-7C" x="406" y="0"></use>
 <use transform="scale(0.707)" xlink:href="#E1-MJMATHI-66" x="685" y="0"></use>
 <use transform="scale(0.707)" xlink:href="#E1-MJMAIN-28" x="1235" y="0"></use>
 <use transform="scale(0.707)" xlink:href="#E1-MJMATHI-79" x="1625" y="0"></use>
<g transform="translate(1500,0)">
 <use transform="scale(0.707)" xlink:href="#E1-MJMAIN-29" x="0" y="0"></use>
 <use transform="scale(0.574)" xlink:href="#E1-MJMATHI-69" x="479" y="-360"></use>
</g>
 <use transform="scale(0.707)" xlink:href="#E1-MJMAIN-2212" x="2892" y="0"></use>
<g transform="translate(2595,0)">
 <use transform="scale(0.707)" xlink:href="#E1-MJMATHI-7A" x="0" y="0"></use>
 <use transform="scale(0.574)" xlink:href="#E1-MJMATHI-69" x="573" y="-238"></use>
</g>
 <use transform="scale(0.707)" xlink:href="#E1-MJMAIN-7C" x="4516" y="0"></use>
</g>
<g transform="translate(1246,-452)">
 <use transform="scale(0.707)" xlink:href="#E1-MJMAIN-25B3" x="0" y="0"></use>
 <use transform="scale(0.707)" xlink:href="#E1-MJMATHI-66" x="889" y="0"></use>
</g>
</g>
</g>
 <use xlink:href="#E1-MJMAIN-29" x="6448" y="0"></use>
</g>
</g>
</g>
</g>
<g transform="translate(0,1467)">
 <use xlink:href="#E1-MJMAIN-3D" x="277" y="0"></use>
<g transform="translate(1334,0)">
 <use xlink:href="#E1-MJSZ2-220F" x="0" y="0"></use>
<g transform="translate(64,-1090)">
 <use transform="scale(0.707)" xlink:href="#E1-MJMATHI-69" x="0" y="0"></use>
 <use transform="scale(0.707)" xlink:href="#E1-MJMAIN-3D" x="345" y="0"></use>
 <use transform="scale(0.707)" xlink:href="#E1-MJMAIN-31" x="1124" y="0"></use>
</g>
 <use transform="scale(0.707)" xlink:href="#E1-MJMATHI-6B" x="643" y="1627"></use>
</g>
<g transform="translate(2779,0)">
 <use xlink:href="#E1-MJMAIN-65"></use>
 <use xlink:href="#E1-MJMAIN-78" x="444" y="0"></use>
 <use xlink:href="#E1-MJMAIN-70" x="973" y="0"></use>
</g>
<g transform="translate(4475,0)">
<g transform="translate(120,0)">
<rect stroke="none" width="12125" height="60" x="0" y="220"></rect>
<g transform="translate(60,770)">
 <use xlink:href="#E1-MJMATHI-3F5" x="0" y="0"></use>
 <use xlink:href="#E1-MJMAIN-28" x="406" y="0"></use>
 <use xlink:href="#E1-MJMAIN-7C" x="796" y="0"></use>
 <use xlink:href="#E1-MJMATHI-66" x="1074" y="0"></use>
 <use xlink:href="#E1-MJMAIN-28" x="1625" y="0"></use>
 <use xlink:href="#E1-MJMATHI-79" x="2014" y="0"></use>
<g transform="translate(2512,0)">
 <use xlink:href="#E1-MJMAIN-29" x="0" y="0"></use>
 <use transform="scale(0.707)" xlink:href="#E1-MJMATHI-69" x="550" y="-213"></use>
</g>
 <use xlink:href="#E1-MJMAIN-2212" x="3468" y="0"></use>
<g transform="translate(4468,0)">
 <use xlink:href="#E1-MJMATHI-7A" x="0" y="0"></use>
 <use transform="scale(0.707)" xlink:href="#E1-MJMATHI-69" x="658" y="-213"></use>
</g>
 <use xlink:href="#E1-MJMAIN-7C" x="5278" y="0"></use>
 <use xlink:href="#E1-MJMAIN-2212" x="5779" y="0"></use>
 <use xlink:href="#E1-MJMAIN-7C" x="6779" y="0"></use>
 <use xlink:href="#E1-MJMATHI-66" x="7058" y="0"></use>
 <use xlink:href="#E1-MJMAIN-28" x="7608" y="0"></use>
 <use xlink:href="#E1-MJMATHI-78" x="7998" y="0"></use>
<g transform="translate(8570,0)">
 <use xlink:href="#E1-MJMAIN-29" x="0" y="0"></use>
 <use transform="scale(0.707)" xlink:href="#E1-MJMATHI-69" x="550" y="-213"></use>
</g>
 <use xlink:href="#E1-MJMAIN-2212" x="9527" y="0"></use>
<g transform="translate(10527,0)">
 <use xlink:href="#E1-MJMATHI-7A" x="0" y="0"></use>
 <use transform="scale(0.707)" xlink:href="#E1-MJMATHI-69" x="658" y="-213"></use>
</g>
 <use xlink:href="#E1-MJMAIN-7C" x="11337" y="0"></use>
 <use xlink:href="#E1-MJMAIN-29" x="11616" y="0"></use>
</g>
<g transform="translate(5342,-737)">
 <use xlink:href="#E1-MJMAIN-25B3" x="0" y="0"></use>
 <use xlink:href="#E1-MJMATHI-66" x="889" y="0"></use>
</g>
</g>
</g>
</g>
<g transform="translate(0,-1773)">
 <use xlink:href="#E1-MJMAIN-2264" x="277" y="0"></use>
<g transform="translate(1334,0)">
 <use xlink:href="#E1-MJSZ2-220F" x="0" y="0"></use>
<g transform="translate(64,-1090)">
 <use transform="scale(0.707)" xlink:href="#E1-MJMATHI-69" x="0" y="0"></use>
 <use transform="scale(0.707)" xlink:href="#E1-MJMAIN-3D" x="345" y="0"></use>
 <use transform="scale(0.707)" xlink:href="#E1-MJMAIN-31" x="1124" y="0"></use>
</g>
 <use transform="scale(0.707)" xlink:href="#E1-MJMATHI-6B" x="643" y="1627"></use>
</g>
<g transform="translate(2779,0)">
 <use xlink:href="#E1-MJMAIN-65"></use>
 <use xlink:href="#E1-MJMAIN-78" x="444" y="0"></use>
 <use xlink:href="#E1-MJMAIN-70" x="973" y="0"></use>
</g>
 <use xlink:href="#E1-MJMAIN-28" x="4308" y="0"></use>
<g transform="translate(4698,0)">
<g transform="translate(120,0)">
<rect stroke="none" width="7503" height="60" x="0" y="220"></rect>
<g transform="translate(60,770)">
 <use xlink:href="#E1-MJMATHI-3F5" x="0" y="0"></use>
 <use xlink:href="#E1-MJMAIN-28" x="406" y="0"></use>
 <use xlink:href="#E1-MJMAIN-7C" x="796" y="0"></use>
 <use xlink:href="#E1-MJMATHI-66" x="1074" y="0"></use>
 <use xlink:href="#E1-MJMAIN-28" x="1625" y="0"></use>
 <use xlink:href="#E1-MJMATHI-78" x="2014" y="0"></use>
<g transform="translate(2587,0)">
 <use xlink:href="#E1-MJMAIN-29" x="0" y="0"></use>
 <use transform="scale(0.707)" xlink:href="#E1-MJMATHI-69" x="550" y="-213"></use>
</g>
 <use xlink:href="#E1-MJMAIN-2212" x="3543" y="0"></use>
 <use xlink:href="#E1-MJMATHI-66" x="4543" y="0"></use>
 <use xlink:href="#E1-MJMAIN-28" x="5094" y="0"></use>
 <use xlink:href="#E1-MJMATHI-79" x="5483" y="0"></use>
<g transform="translate(5981,0)">
 <use xlink:href="#E1-MJMAIN-29" x="0" y="0"></use>
 <use transform="scale(0.707)" xlink:href="#E1-MJMATHI-69" x="550" y="-213"></use>
</g>
 <use xlink:href="#E1-MJMAIN-7C" x="6715" y="0"></use>
 <use xlink:href="#E1-MJMAIN-29" x="6993" y="0"></use>
</g>
<g transform="translate(3031,-737)">
 <use xlink:href="#E1-MJMAIN-25B3" x="0" y="0"></use>
 <use xlink:href="#E1-MJMATHI-66" x="889" y="0"></use>
</g>
</g>
</g>
 <use xlink:href="#E1-MJMAIN-29" x="12441" y="0"></use>
</g>
<g transform="translate(0,-4828)">
 <use xlink:href="#E1-MJMAIN-3D" x="277" y="0"></use>
<g transform="translate(1334,0)">
 <use xlink:href="#E1-MJMAIN-65"></use>
 <use xlink:href="#E1-MJMAIN-78" x="444" y="0"></use>
 <use xlink:href="#E1-MJMAIN-70" x="973" y="0"></use>
</g>
 <use xlink:href="#E1-MJMAIN-28" x="2863" y="0"></use>
<g transform="translate(3253,0)">
<g transform="translate(120,0)">
<rect stroke="none" width="7769" height="60" x="0" y="220"></rect>
<g transform="translate(60,805)">
 <use xlink:href="#E1-MJMATHI-3F5" x="0" y="0"></use>
 <use xlink:href="#E1-MJMAIN-22C5" x="628" y="0"></use>
 <use xlink:href="#E1-MJMAIN-7C" x="1129" y="0"></use>
 <use xlink:href="#E1-MJMAIN-7C" x="1407" y="0"></use>
 <use xlink:href="#E1-MJMATHI-66" x="1686" y="0"></use>
 <use xlink:href="#E1-MJMAIN-28" x="2236" y="0"></use>
 <use xlink:href="#E1-MJMATHI-78" x="2626" y="0"></use>
 <use xlink:href="#E1-MJMAIN-29" x="3198" y="0"></use>
 <use xlink:href="#E1-MJMAIN-2212" x="3810" y="0"></use>
 <use xlink:href="#E1-MJMATHI-66" x="4811" y="0"></use>
 <use xlink:href="#E1-MJMAIN-28" x="5361" y="0"></use>
 <use xlink:href="#E1-MJMATHI-79" x="5751" y="0"></use>
 <use xlink:href="#E1-MJMAIN-29" x="6248" y="0"></use>
 <use xlink:href="#E1-MJMAIN-7C" x="6638" y="0"></use>
<g transform="translate(6916,0)">
 <use xlink:href="#E1-MJMAIN-7C" x="0" y="0"></use>
 <use transform="scale(0.707)" xlink:href="#E1-MJMAIN-31" x="393" y="-404"></use>
</g>
</g>
<g transform="translate(3164,-737)">
 <use xlink:href="#E1-MJMAIN-25B3" x="0" y="0"></use>
 <use xlink:href="#E1-MJMATHI-66" x="889" y="0"></use>
</g>
</g>
</g>
 <use xlink:href="#E1-MJMAIN-29" x="11262" y="0"></use>
</g>
<g transform="translate(0,-6870)">
 <use xlink:href="#E1-MJMAIN-2264" x="277" y="0"></use>
<g transform="translate(1334,0)">
 <use xlink:href="#E1-MJMAIN-65"></use>
 <use xlink:href="#E1-MJMAIN-78" x="444" y="0"></use>
 <use xlink:href="#E1-MJMAIN-70" x="973" y="0"></use>
</g>
 <use xlink:href="#E1-MJMAIN-28" x="2863" y="0"></use>
 <use xlink:href="#E1-MJMATHI-3F5" x="3253" y="0"></use>
 <use xlink:href="#E1-MJMAIN-29" x="3659" y="0"></use>
</g>
</g>
</g>
</g>
</g>
</svg>